<svg width="102" height="102" viewBox="0 0 102 102" fill="none" xmlns="http://www.w3.org/2000/svg">
<path d="M50.869 8.66114e-08C40.8203 -0.000586527 30.9971 2.97866 22.6416 8.56098C14.2862 14.1433 7.77372 22.078 3.92785 31.3616C0.0819808 40.6452 -0.924579 50.8608 1.03546 60.7164C2.9955 70.5721 7.83411 79.6252 14.9394 86.7309C22.0447 93.8366 31.0975 98.6758 40.9531 100.636C50.8086 102.597 61.0243 101.591 70.3081 97.7457C79.5919 93.9004 87.527 87.3884 93.1098 79.0332C98.6926 70.6781 101.672 60.8551 101.672 50.8064C101.672 37.3322 96.32 24.4099 86.7926 14.8819C77.2652 5.35394 64.3432 0.000786671 50.869 8.66114e-08ZM41.2356 81.4534C38.0057 83.2982 35.0072 82.5982 32.1599 80.5132C25.1899 75.3969 20.9931 61.9405 31.6112 55.4155C34.7729 53.4698 35.2593 50.8034 34.7907 47.4075C33.8623 40.7044 33.1772 33.9747 32.3942 27.2391L32.5514 27.2184V25.6168C32.5306 21.3844 34.2775 19.0591 37.4659 19.0917C40.6543 19.1243 42.3775 21.42 42.2618 25.7057C42.069 32.8922 41.1822 40.0193 40.073 47.1049C39.4798 50.8539 40.2124 53.63 43.5965 55.7388C54.087 62.2935 49.4275 76.7702 41.2356 81.4534ZM74.0388 23.1639C74.027 31.9727 74.027 40.7806 74.0388 49.5874C74.0388 58.3962 74.0566 67.205 74.0388 76.0109C74.024 80.27 72.2444 82.5656 69.0917 82.5359C65.7402 82.4855 63.8687 79.8162 64.4055 75.4859C64.8178 72.1344 65.2181 68.7355 66.1228 65.4967C67.4812 60.677 66.3511 56.5989 63.0501 53.1495C56.0653 45.8236 58.3906 26.0913 68.7862 20.4323C69.9547 19.8006 70.9721 18.6527 72.4669 19.329C74.1456 20.0853 74.0418 21.6513 74.0388 23.1639ZM69.0175 73.0539C68.205 73.0521 67.4103 73.2915 66.7339 73.7417C66.0576 74.192 65.5301 74.8328 65.2182 75.5831C64.9063 76.3333 64.8241 77.1592 64.982 77.9563C65.1398 78.7533 65.5307 79.4855 66.105 80.0602C66.6793 80.6349 67.4113 81.0263 68.2082 81.1848C69.0051 81.3432 69.831 81.2616 70.5815 80.9502C71.332 80.6389 71.9732 80.1119 72.4239 79.4359C72.8747 78.7598 73.1146 77.9653 73.1135 77.1528C73.1127 76.0664 72.681 75.0248 71.9131 74.2563C71.1452 73.4879 70.1039 73.0554 69.0175 73.0539Z" fill="#F54748"/>
<path d="M73.1134 77.1528C73.114 77.9642 72.874 78.7575 72.4236 79.4324C71.9732 80.1074 71.3328 80.6336 70.5833 80.9445C69.8339 81.2554 69.009 81.3371 68.2131 81.1791C67.4172 81.0212 66.6861 80.6308 66.1121 80.0572C65.5382 79.4837 65.1472 78.7528 64.9887 77.957C64.8302 77.1613 64.9112 76.3364 65.2216 75.5867C65.532 74.837 66.0577 74.1962 66.7324 73.7453C67.407 73.2945 68.2002 73.0538 69.0116 73.0538C70.0987 73.0546 71.1411 73.4866 71.9101 74.2551C72.6791 75.0235 73.1119 76.0656 73.1134 77.1528Z" fill="#2D2D2D"/>
<path d="M41.5647 24.1427C41.5653 24.9549 41.3249 25.7491 40.8739 26.4246C40.423 27.1002 39.7817 27.6268 39.0314 27.9377C38.281 28.2487 37.4553 28.3301 36.6586 28.1715C35.862 28.013 35.1303 27.6217 34.5562 27.0471C33.9821 26.4726 33.5913 25.7406 33.4334 24.9439C33.2754 24.1472 33.3574 23.3215 33.6689 22.5713C33.9804 21.8212 34.5074 21.1804 35.1833 20.7299C35.8592 20.2794 36.6535 20.0396 37.4658 20.0408C38.5531 20.0416 39.5957 20.4741 40.3643 21.2432C41.1329 22.0124 41.5647 23.0553 41.5647 24.1427Z" fill="#2D2D2D"/>
</svg>
